<?xml version="1.0" encoding="UTF-8"?>
<svg version="1.1" xmlns="http://www.w3.org/2000/svg" width="1024" height="1024">
<path d="M0 0 C337.92 0 675.84 0 1024 0 C1024 337.92 1024 675.84 1024 1024 C686.08 1024 348.16 1024 0 1024 C0 686.08 0 348.16 0 0 Z " fill="#184A9D" transform="translate(0,0)"/>
<path d="M0 0 C172.22411789 0 172.22411789 0 190.0625 3.6875 C191.27909302 3.93741699 191.27909302 3.93741699 192.52026367 4.19238281 C211.33696168 8.31609246 229.48531627 16.21732055 244 29 C244.81855469 29.67546875 245.63710938 30.3509375 246.48046875 31.046875 C265.84184993 47.49654459 277.68223776 72.81267234 280 98 C281.75112115 126.49509582 277.76777419 153.8331784 260 177 C259.22785156 178.01578125 258.45570313 179.0315625 257.66015625 180.078125 C246.8344333 193.69151436 232.20748934 204.57289216 216 211 C216.64952739 214.33186138 217.89844599 216.76286117 219.66796875 219.6484375 C220.5021936 221.01536743 220.5021936 221.01536743 221.35327148 222.40991211 C221.95856689 223.38839111 222.5638623 224.36687012 223.1875 225.375 C223.815354 226.39795166 224.44320801 227.42090332 225.09008789 228.47485352 C229.87645021 236.24709377 234.75352663 243.96010489 239.67211914 251.64916992 C244.0340164 258.46801223 248.34164967 265.31906803 252.625 272.1875 C258.56743294 281.7139914 264.54376911 291.21814144 270.54833984 300.70556641 C273.52714624 305.41374376 276.50134633 310.12483619 279.47436523 314.83666992 C282.11660347 319.02315834 284.76510441 323.20552858 287.421875 327.3828125 C288.2571875 328.69862305 288.2571875 328.69862305 289.109375 330.04101562 C290.18567411 331.73618672 291.26374024 333.43023746 292.34375 335.12304688 C292.82328125 335.87908203 293.3028125 336.63511719 293.796875 337.4140625 C294.22323242 338.0838916 294.64958984 338.7537207 295.08886719 339.44384766 C296 341 296 341 296 342 C283.99561773 342.23188796 271.99176963 342.40947616 259.98560238 342.51812172 C254.4102502 342.57027256 248.83643208 342.64098017 243.26196289 342.75439453 C237.88017829 342.86320109 232.49986706 342.92287203 227.11706734 342.94877243 C225.06558597 342.96722418 223.0141837 343.00325971 220.96333122 343.05730057 C204.89183941 343.46387643 204.89183941 343.46387643 200.246521 339.86940002 C198.41330528 337.29647585 197.19786926 334.91352607 196 332 C195.0723974 330.44830725 194.12502921 328.90805553 193.1484375 327.38671875 C192.22062877 325.82228235 191.29625192 324.25580647 190.375 322.6875 C186.15566622 315.57843191 181.86909602 308.51802399 177.5 301.5 C172.71733412 293.8086866 168.01787313 286.07240838 163.37231445 278.29760742 C160.17531285 272.94965683 156.9457185 267.62334802 153.6875 262.3125 C149.05364228 254.74708848 144.45477469 247.16075022 139.875 239.5625 C138.87859497 237.91664917 138.87859497 237.91664917 137.86206055 236.23754883 C136.93647339 234.69877075 136.93647339 234.69877075 135.9921875 233.12890625 C135.43901855 232.21181885 134.88584961 231.29473145 134.31591797 230.34985352 C133 228 133 228 132 225 C116.49 225 100.98 225 85 225 C85 263.61 85 302.22 85 342 C56.95 342 28.9 342 0 342 C0 229.14 0 116.28 0 0 Z " fill="#FDFEFE" transform="translate(327,341)"/>
<path d="M0 0 C11.405625 -0.0825 22.81125 -0.165 34.5625 -0.25 C38.13263916 -0.28641602 41.70277832 -0.32283203 45.38110352 -0.36035156 C49.82019043 -0.37841797 49.82019043 -0.37841797 51.91368103 -0.3817749 C53.34223959 -0.38782348 54.77078083 -0.40169069 56.19920349 -0.42230225 C72.38832317 -0.64374599 87.4696987 1.89474805 99.8125 13.3125 C108.32367926 22.42446839 111.57146475 33.58662151 111.4375 45.8125 C111.42992676 46.78082764 111.42235352 47.74915527 111.41455078 48.74682617 C111.24623345 56.06740156 110.33963427 62.39401496 107 69 C106.59910156 69.80308594 106.19820312 70.60617187 105.78515625 71.43359375 C99.53693706 82.17328645 88.48236383 87.45173638 77 91 C72.89384754 92.00984103 69.04615851 92.12092147 64.82299805 92.11352539 C63.75157798 92.11370619 63.75157798 92.11370619 62.65851307 92.11389065 C60.35954932 92.11314768 58.06066789 92.10554764 55.76171875 92.09765625 C54.33711791 92.09618492 52.91251653 92.09516539 51.48791504 92.09460449 C46.22110175 92.08937373 40.95430006 92.07541246 35.6875 92.0625 C23.910625 92.041875 12.13375 92.02125 0 92 C0 61.64 0 31.28 0 0 Z " fill="#1C4EA1" transform="translate(412,408)"/>
<path d="M0 0 C1.2384668 -0.01836914 1.2384668 -0.01836914 2.50195312 -0.03710938 C14.94903694 -0.06653511 25.01411668 4.29074147 34.125 12.8125 C43.83444253 23.04677726 47.47946255 35.22768467 47.12109375 49.11328125 C46.42879863 61.42234597 40.20997035 71.30637253 31.375 79.5625 C20.7583019 88.46047463 7.58111977 91.64279984 -6.12792969 90.48046875 C-18.91938383 88.66091624 -28.58012366 81.0546558 -36.5625 71.25 C-43.93265496 60.78980839 -45.27212271 48.68531167 -44.1875 36.1875 C-42.15465966 28.14376106 -38.69328839 21.36439195 -33.1875 15.1875 C-32.47207031 14.29998047 -32.47207031 14.29998047 -31.7421875 13.39453125 C-23.76866277 4.31913752 -11.72905062 0.00894664 0 0 Z " fill="#FBFDFD" transform="translate(690.1875,595.8125)"/>
<path d="M0 0 C160 0 160 0 173 1 C173 1.33 173 1.66 173 2 C171.8862906 1.99861731 171.8862906 1.99861731 170.75008202 1.99720669 C152.58320947 1.97500606 134.41633968 1.95851815 116.24945641 1.94818783 C107.46366256 1.94305785 98.67787783 1.93607897 89.89208984 1.92456055 C82.22366791 1.91451192 74.55525259 1.90812267 66.88682425 1.90591151 C62.8362271 1.90462146 58.78564885 1.90164626 54.73505783 1.89426994 C50.90195925 1.88734801 47.06888687 1.88541489 43.23578262 1.88689232 C41.20035716 1.88649729 39.16493438 1.88118821 37.1295166 1.87557983 C25.703777 1.88789351 14.45483814 2.47932554 3 3 C2.67 114.21 2.34 225.42 2 340 C29.06 340.33 56.12 340.66 84 341 C84 302.72 84 264.44 84 225 C84.33 225 84.66 225 85 225 C85 263.61 85 302.22 85 342 C56.95 342 28.9 342 0 342 C0 229.14 0 116.28 0 0 Z " fill="#C3D9EE" transform="translate(327,341)"/>
<path d="M0 0 C0.99 0.33 1.98 0.66 3 1 C2.67 1.66 2.34 2.32 2 3 C2.54366211 2.83250244 3.08732422 2.66500488 3.64746094 2.49243164 C6.4105229 1.91406967 8.82092483 1.9861081 11.640625 2.12109375 C13.24550781 2.19360352 13.24550781 2.19360352 14.8828125 2.26757812 C16.54957031 2.35168945 16.54957031 2.35168945 18.25 2.4375 C19.93996094 2.51581055 19.93996094 2.51581055 21.6640625 2.59570312 C24.44299972 2.72522986 27.22156424 2.86019053 30 3 C30 3.66 30 4.32 30 5 C34.95 5 39.9 5 45 5 C45.33 5.66 45.66 6.32 46 7 C40 8 40 8 20 6 C-32.8 5.67 -85.6 5.34 -140 5 C-140 117.86 -140 230.72 -140 347 C-140.66 347 -141.32 347 -142 347 C-141.99907821 346.45554796 -141.99815641 345.91109592 -141.99720669 345.35014534 C-141.97514048 332.11395829 -141.95864686 318.87777445 -141.94818783 305.64157295 C-141.9429605 299.24069663 -141.93586554 292.83983355 -141.92456055 286.43896484 C-141.91372638 280.2663243 -141.90772203 274.09369652 -141.90512276 267.92104721 C-141.90326947 265.56143874 -141.89965069 263.201831 -141.89426994 260.84222794 C-141.88705252 257.54730956 -141.88600936 254.25244449 -141.88647461 250.95751953 C-141.88287933 249.9735318 -141.87928406 248.98954407 -141.87557983 247.97573853 C-141.8769545 247.08108887 -141.87832916 246.18643921 -141.87974548 245.26467896 C-141.87836279 244.09492366 -141.87836279 244.09492366 -141.87695217 242.90153694 C-141.88203691 240.91215708 -141.88203691 240.91215708 -143 239 C-143.99 239 -144.98 239 -146 239 C-146 238.34 -146 237.68 -146 237 C-144.515 236.01 -144.515 236.01 -143 235 C-142.67157363 231.65156545 -142.67157363 231.65156545 -142.875 227.8125 C-142.98815892 224.02922016 -143.0861391 220.52840553 -142.4765625 216.7890625 C-141.66075765 210.30274528 -142.31643482 203.81785279 -142.68359375 197.30664062 C-142.96124456 191.58093912 -142.98135308 186.01723872 -142.51806641 180.30151367 C-141.64838631 167.94528074 -141.85615873 155.55122447 -141.8671875 143.171875 C-141.86651251 140.48821965 -141.86554199 137.80456566 -141.86428833 135.12091064 C-141.86248098 129.52331032 -141.86483602 123.92572329 -141.86962891 118.328125 C-141.87507943 111.88874906 -141.87329733 105.44940475 -141.8678025 99.01002955 C-141.86324297 93.44013601 -141.86263433 87.87025191 -141.86524117 82.3003571 C-141.86678702 78.99143833 -141.86664213 75.6825374 -141.86370468 72.37361908 C-141.86114703 68.68493041 -141.86506188 64.99630144 -141.87060547 61.30761719 C-141.86858124 60.23510712 -141.86655701 59.16259705 -141.86447144 58.05758667 C-141.8816005 51.86218722 -142.19108279 45.75983258 -142.77316284 39.59118462 C-143.07370682 36.15803926 -143.12952148 32.78257516 -143.1328125 29.3359375 C-143.13410156 28.03011719 -143.13539063 26.72429687 -143.13671875 25.37890625 C-143.13462402 24.72164551 -143.1325293 24.06438477 -143.13037109 23.38720703 C-143.12491379 21.34270123 -143.13040407 19.29840625 -143.13671875 17.25390625 C-143.13478516 15.31451172 -143.13478516 15.31451172 -143.1328125 13.3359375 C-143.13168457 12.16595215 -143.13055664 10.9959668 -143.12939453 9.79052734 C-143 7 -143 7 -142 5 C-142.66 4.67 -143.32 4.34 -144 4 C-140.20685254 2.73561751 -136.53592444 2.6311086 -132.57519531 2.44360352 C-131.69807514 2.40142228 -130.82095497 2.35924105 -129.9172554 2.31578159 C-117.54938061 1.78331165 -105.17341032 1.87648983 -92.796875 1.90234375 C-90.13502927 1.90421352 -87.47318625 1.90568412 -84.81134033 1.90663147 C-78.57878749 1.909707 -72.34625275 1.91786798 -66.11370778 1.92798096 C-59.00334553 1.93926132 -51.89298229 1.94468221 -44.78261328 1.94967639 C-30.18839963 1.96005496 -15.59420007 1.97757906 -1 2 C-0.67 1.34 -0.34 0.68 0 0 Z " fill="#274F8A" transform="translate(467,336)"/>
<path d="M0 0 C11.405625 -0.0825 22.81125 -0.165 34.5625 -0.25 C38.13263916 -0.28641602 41.70277832 -0.32283203 45.38110352 -0.36035156 C49.82019043 -0.37841797 49.82019043 -0.37841797 51.91368103 -0.3817749 C53.34223959 -0.38782348 54.77078083 -0.40169069 56.19920349 -0.42230225 C67.30837632 -0.57425967 81.13214592 -0.65030855 90 7 C87.09905209 8.45047396 85.44027404 7.45356803 82.375 6.5625 C81.37210937 6.27503906 80.36921875 5.98757813 79.3359375 5.69140625 C78.17964844 5.34916016 78.17964844 5.34916016 77 5 C77 4.34 77 3.68 77 3 C76.34061935 3.00222061 75.68123871 3.00444122 75.00187683 3.00672913 C68.04056346 3.02912503 61.07926058 3.04404706 54.11791992 3.05493164 C51.53165266 3.05991172 48.94538814 3.0666982 46.35913086 3.07543945 C31.53747529 3.12422322 16.79027651 3.02324119 2 2 C2.01252808 2.7824408 2.02505615 3.56488159 2.03796387 4.37103271 C2.15727752 11.8405812 2.27503306 19.31015203 2.39115143 26.77975082 C2.450863 30.61750371 2.51112246 34.45524617 2.57275391 38.29296875 C2.83846784 54.86245121 3.09186982 71.4277045 3 88 C5.70673716 89.35336858 7.82108862 89.12717154 10.8515625 89.12939453 C12.08044189 89.13254669 13.30932129 89.13569885 14.57543945 89.13894653 C15.92529333 89.13715511 17.27514688 89.13510375 18.625 89.1328125 C20.01066098 89.13348642 21.39632185 89.13445718 22.78198242 89.13571167 C25.69402181 89.13718841 28.60603058 89.13503747 31.51806641 89.13037109 C35.22532639 89.12471624 38.9325133 89.12792574 42.63977051 89.13394356 C45.50706515 89.13758626 48.37434298 89.13639296 51.24163818 89.13381577 C52.60658782 89.13315449 53.97153904 89.13394656 55.33648682 89.13629532 C70.50671952 89.28445874 70.50671952 89.28445874 85.0625 85.5625 C86.16722656 85.13066406 87.27195312 84.69882812 88.41015625 84.25390625 C91.12096059 83.2665378 91.12096059 83.2665378 92 81 C92.66 81 93.32 81 94 81 C94 80.34 94 79.68 94 79 C94.99 78.67 95.98 78.34 97 78 C98.20882096 75.99983534 98.20882096 75.99983534 99 74 C99.66 74.33 100.32 74.66 101 75 C101 74.34 101 73.68 101 73 C102.485 73.495 102.485 73.495 104 74 C97.49845562 83.75231658 85.79798407 88.8297654 74.76228333 91.55198669 C71.41192398 92.09537975 68.21810287 92.11947128 64.82299805 92.11352539 C63.75157798 92.11370619 63.75157798 92.11370619 62.65851307 92.11389065 C60.35954932 92.11314768 58.06066789 92.10554764 55.76171875 92.09765625 C54.33711791 92.09618492 52.91251653 92.09516539 51.48791504 92.09460449 C46.22110175 92.08937373 40.95430006 92.07541246 35.6875 92.0625 C23.910625 92.041875 12.13375 92.02125 0 92 C0 61.64 0 31.28 0 0 Z " fill="#2C528A" transform="translate(412,408)"/>
<path d="M0 0 C15.51 0 31.02 0 47 0 C48.65 2.97 50.3 5.94 52 9 C51.01 9 50.02 9 49 9 C48.01 6.03 48.01 6.03 47 3 C32.15 2.67 17.3 2.34 2 2 C2.08378906 9.29609375 2.16757812 16.5921875 2.25390625 24.109375 C2.30465714 28.74869301 2.35507419 33.38800989 2.40429688 38.02734375 C2.48235036 45.38106286 2.56159788 52.73475477 2.64819336 60.08837891 C2.717979 66.02111506 2.7822117 71.95388836 2.84269524 77.88672638 C2.86665576 80.14319263 2.89257199 82.39963905 2.92053413 84.65605927 C3.22890327 109.75932415 3.22890327 109.75932415 2 117 C0.21142938 118.78857062 -2.20123134 118.11990579 -4.58209229 118.12442017 C-5.78294464 118.11902725 -5.78294464 118.11902725 -7.00805664 118.11352539 C-7.84700974 118.11367142 -8.68596283 118.11381744 -9.55033875 118.1139679 C-12.33697044 118.1132685 -15.12353616 118.10547485 -17.91015625 118.09765625 C-19.83686791 118.09579217 -21.76358005 118.09436822 -23.69029236 118.09336853 C-28.77187397 118.08954259 -33.8534272 118.07971166 -38.93499756 118.06866455 C-44.11616634 118.05845206 -49.29733969 118.05387126 -54.47851562 118.04882812 C-64.65235625 118.03808946 -74.82617577 118.02101213 -85 118 C-85 117.67 -85 117.34 -85 117 C-56.95 117 -28.9 117 0 117 C0 78.39 0 39.78 0 0 Z " fill="#23487F" transform="translate(412,566)"/>
<path d="M0 0 C3.15370836 0.13250875 4.91342287 0.54709859 7.69140625 1.94921875 C10.66101732 3.39842963 13.55183852 4.60725904 16.69140625 5.63671875 C20.25390625 7.13671875 20.25390625 7.13671875 21.44140625 9.07421875 C21.70953125 9.75484375 21.97765625 10.43546875 22.25390625 11.13671875 C23.00800781 11.69101562 23.76210938 12.2453125 24.5390625 12.81640625 C27.83622244 15.63441057 29.48959357 18.53963512 31.50390625 22.32421875 C33.53753213 26.48446448 33.53753213 26.48446448 36.25390625 30.13671875 C37.30189583 35.92006863 37.55888196 41.71026393 37.81640625 47.57421875 C37.85958984 48.49654297 37.90277344 49.41886719 37.94726562 50.36914062 C38.05245556 52.62488038 38.15459732 54.88071374 38.25390625 57.13671875 C37.59390625 57.13671875 36.93390625 57.13671875 36.25390625 57.13671875 C36.3003125 58.00039063 36.34671875 58.8640625 36.39453125 59.75390625 C36.24162841 63.43206894 35.43722131 65.88565737 34.00390625 69.26171875 C33.58625 70.27492188 33.16859375 71.288125 32.73828125 72.33203125 C31.21828667 75.20402101 29.739608 77.05867209 27.25390625 79.13671875 C26.59390625 79.13671875 25.93390625 79.13671875 25.25390625 79.13671875 C24.75890625 80.62171875 24.75890625 80.62171875 24.25390625 82.13671875 C22.19140625 82.82421875 22.19140625 82.82421875 20.25390625 83.13671875 C20.19332031 83.74 20.13273438 84.34328125 20.0703125 84.96484375 C18.89797 88.08361136 17.16675276 88.53086464 14.19140625 89.88671875 C13.27230469 90.3146875 12.35320313 90.74265625 11.40625 91.18359375 C10.69597656 91.498125 9.98570312 91.81265625 9.25390625 92.13671875 C8.92390625 90.81671875 8.59390625 89.49671875 8.25390625 88.13671875 C9.36765625 87.66234375 10.48140625 87.18796875 11.62890625 86.69921875 C22.57115841 81.1698892 29.98590802 71.90973692 34.12890625 60.51171875 C37.32321304 48.34657434 35.89142218 35.66333306 29.8984375 24.64453125 C28.46232966 22.35753914 26.93639814 20.24800105 25.25390625 18.13671875 C24.51914062 17.21439453 24.51914062 17.21439453 23.76953125 16.2734375 C16.97983987 8.69385628 7.31787152 3.732621 -2.7878418 2.98583984 C-13.89702913 2.37893898 -22.65615569 3.06457753 -32.74609375 8.13671875 C-33.07609375 7.14671875 -33.40609375 6.15671875 -33.74609375 5.13671875 C-32.42609375 5.13671875 -31.10609375 5.13671875 -29.74609375 5.13671875 C-29.74609375 4.47671875 -29.74609375 3.81671875 -29.74609375 3.13671875 C-19.98738149 0.47525177 -10.05088258 0.36682053 0 0 Z " fill="#224983" transform="translate(700.74609375,593.86328125)"/>
<path d="M0 0 C0.33 0 0.66 0 1 0 C0.67 2.97 0.34 5.94 0 9 C-0.66 9 -1.32 9 -2 9 C-2.24105469 9.81210937 -2.48210938 10.62421875 -2.73046875 11.4609375 C-4.25942828 15.72320622 -6.21013637 19.62182166 -8.3125 23.625 C-8.69083984 24.37523437 -9.06917969 25.12546875 -9.45898438 25.8984375 C-11.76699281 30.30357035 -13.86204665 33.07659951 -18 36 C-19.31165257 38.11660427 -19.31165257 38.11660427 -20 40 C-20.66 40 -21.32 40 -22 40 C-22.33 41.32 -22.66 42.64 -23 44 C-23.9590625 44.1546875 -23.9590625 44.1546875 -24.9375 44.3125 C-25.618125 44.539375 -26.29875 44.76625 -27 45 C-27.33 45.99 -27.66 46.98 -28 48 C-28.61875 48.28875 -29.2375 48.5775 -29.875 48.875 C-32.22714463 49.87136221 -32.22714463 49.87136221 -33.375 52.5 C-35.47554224 55.73160345 -37.34013513 56.10536636 -41 57 C-41 57.66 -41 58.32 -41 59 C-41.7734375 59.1546875 -41.7734375 59.1546875 -42.5625 59.3125 C-47.25606847 60.63632701 -51.68022939 62.75371928 -56 65 C-55.67 67.64 -55.34 70.28 -55 73 C-57.57189568 70.01328244 -59.21616433 67.86142204 -60 64 C-58.91203125 63.45472656 -57.8240625 62.90945313 -56.703125 62.34765625 C-47.41005839 57.60991047 -39.11306144 52.60217833 -31 46 C-30.37222656 45.5359375 -29.74445312 45.071875 -29.09765625 44.59375 C-15.22690212 33.88879152 -6.07697589 15.95206172 0 0 Z " fill="#2B5189" transform="translate(602,488)"/>
<path d="M0 0 C0.33 0 0.66 0 1 0 C2.12923642 6.31422246 2.13433368 12.49935291 2.11352539 18.90209961 C2.11367142 20.08330383 2.11381744 21.26450806 2.1139679 22.48150635 C2.11339282 25.7020811 2.10839606 28.92261174 2.10139394 32.14317775 C2.09511989 35.51574303 2.0945534 38.88830929 2.09336853 42.26087952 C2.09026712 48.63907038 2.08206985 55.017244 2.07201904 61.39542729 C2.06082085 68.66026157 2.05533813 75.9250967 2.05032361 83.18993747 C2.03988619 98.12663457 2.0223099 113.06331556 2 128 C1.67 128 1.34 128 1 128 C-0.05505736 120.22183991 0.04162854 112.7014242 0.4375 104.875 C0.48970703 103.72773438 0.54191406 102.58046875 0.59570312 101.3984375 C0.72402945 98.59859037 0.85891889 95.79922844 1 93 C-0.65 93 -2.3 93 -4 93 C-3.34950684 91.93612061 -2.69901367 90.87224121 -2.02880859 89.77612305 C0.76275152 84.159072 0.53971856 78.74486874 0.4609375 72.58203125 C0.46002106 71.40662277 0.45910461 70.23121429 0.4581604 69.02018738 C0.45214131 66.54670143 0.43644667 64.0732222 0.41162109 61.59985352 C0.37501782 57.81434297 0.37060277 54.02981005 0.37109375 50.24414062 C0.36126525 47.83592904 0.34960943 45.42772408 0.3359375 43.01953125 C0.33371185 41.88925003 0.33148621 40.75896881 0.32919312 39.59443665 C0.31643341 38.53951523 0.30367371 37.48459381 0.29052734 36.39770508 C0.28290375 35.47363358 0.27528015 34.54956207 0.26742554 33.5974884 C-0.0243199 30.76378221 -0.8270427 28.58360133 -2 26 C-1.67 25.67 -1.34 25.34 -1 25 C-0.95936168 23.33382885 -0.957279 21.66611905 -1 20 C-1.66 19.67 -2.32 19.34 -3 19 C-2.67 18.01 -2.34 17.02 -2 16 C-1.01 16 -0.02 16 1 16 C0.67495741 11.17805357 0.67495741 11.17805357 -1.5625 7.0625 C-2.036875 6.711875 -2.51125 6.36125 -3 6 C-2.34 6 -1.68 6 -1 6 C-0.67 4.02 -0.34 2.04 0 0 Z M-3 28 C-1 29 -1 29 -1 29 Z " fill="#235097" transform="translate(324,378)"/>
<path d="M0 0 C0.66 0 1.32 0 2 0 C1.96519531 1.16015625 1.93039062 2.3203125 1.89453125 3.515625 C1.55729758 19.38945227 3.55752902 32.10109214 14.625 44.25 C23.70085227 52.87205966 35.20531244 56.20834879 47.375 56.625 C48.30183594 56.66367187 49.22867188 56.70234375 50.18359375 56.7421875 C52.4555377 56.83587591 54.72748596 56.92159348 57 57 C49.63422632 60.92083707 40.49300085 58.97333688 32.43359375 58.21875 C30.07523943 57.97015777 30.07523943 57.97015777 28 58 C27.34 57.01 26.68 56.02 26 55 C23.94074861 54.27617533 23.94074861 54.27617533 22 54 C22 53.34 22 52.68 22 52 C21.34 52 20.68 52 20 52 C20 51.34 20 50.68 20 50 C19.01 50 18.02 50 17 50 C17 49.34 17 48.68 17 48 C16.443125 47.7525 15.88625 47.505 15.3125 47.25 C12.53730243 45.74989321 10.2964229 44.16884385 8 42 C8 40.68 8 39.36 8 38 C7.34 38 6.68 38 6 38 C1.52173913 29.23913043 1.52173913 29.23913043 0 25 C-0.391875 24.030625 -0.78375 23.06125 -1.1875 22.0625 C-3.10536178 15.29005059 -1.94208929 6.68941865 0 0 Z " fill="#264B85" transform="translate(645,629)"/>
<path d="M0 0 C0.66 0 1.32 0 2 0 C2 0.99 2 1.98 2 3 C2.66 3 3.32 3 4 3 C6.1244975 6.54082916 6.46508363 9.94991891 7 14 C7.33 14.33 7.66 14.66 8 15 C8.33926947 17.33247761 8.67240066 19.66585471 9 22 C9.33 22.66 9.66 23.32 10 24 C11.29958587 30.21860533 10.98555253 36.24077654 10.75805664 42.5559082 C10.68855897 44.53238339 10.63420086 46.50937218 10.58007812 48.48632812 C10.30094663 56.78944858 9.46882806 64.82297434 8 73 C7.34 73 6.68 73 6 73 C6 74.32 6 75.64 6 77 C5.34 77 4.68 77 4 77 C4.2165625 75.94167969 4.433125 74.88335937 4.65625 73.79296875 C8.64150853 52.74220481 8.41316837 31.74306343 3 11 C2.69191406 9.78828125 2.38382813 8.5765625 2.06640625 7.328125 C1.41488757 4.87168138 0.73631604 2.4320742 0 0 Z " fill="#254D87" transform="translate(599,408)"/>
<path d="M0 0 C8.76311376 5.03879041 14.65729353 12.51796629 18 22 C18.35578125 22.85980469 18.7115625 23.71960938 19.078125 24.60546875 C20.35376206 29.30262385 20.38280224 33.77693756 20.375 38.625 C20.37411377 39.6032373 20.37322754 40.58147461 20.37231445 41.58935547 C20.22226159 50.7677158 18.90543553 58.65627788 13 66 C13.0895773 64.66560711 13.1977103 63.33246081 13.3125 62 C13.37050781 61.2575 13.42851563 60.515 13.48828125 59.75 C13.94093575 57.31741397 14.58028434 55.49444516 15.51953125 53.23046875 C17.21814265 48.86085616 17.46211003 44.96579604 17.375 40.3125 C17.36194824 39.14219238 17.36194824 39.14219238 17.34863281 37.94824219 C17.11325159 28.53685201 15.92668192 19.56162866 10 12 C10 11.34 10 10.68 10 10 C9.34 10 8.68 10 8 10 C8 9.34 8 8.68 8 8 C7.34 8 6.68 8 6 8 C6 7.34 6 6.68 6 6 C4.865625 5.71125 3.73125 5.4225 2.5625 5.125 C1.386875 4.75375 0.21125 4.3825 -1 4 C-1.33 3.34 -1.66 2.68 -2 2 C-1.34 2 -0.68 2 0 2 C0 1.34 0 0.68 0 0 Z " fill="#2F538E" transform="translate(503,415)"/>
<path d="M0 0 C2.90373406 3.48384163 5.31909349 7.02539824 7.609375 10.9375 C7.93987854 11.49888672 8.27038208 12.06027344 8.61090088 12.63867188 C9.66096582 14.42364021 10.70576575 16.21161553 11.75 18 C13.11787425 20.33446217 14.48810385 22.6675318 15.859375 25 C16.198479 25.57764603 16.53758301 26.15529205 16.88696289 26.7504425 C19.91475281 31.89201229 23.04286828 36.96790711 26.19824219 42.03198242 C28.96882934 46.59594286 31.50372436 51.28166082 34 56 C33.01 56 32.02 56 31 56 C31 55.34 31 54.68 31 54 C29.68 54 28.36 54 27 54 C27 52.02 27 50.04 27 48 C25.515 47.505 25.515 47.505 24 47 C23.67 44.69 23.34 42.38 23 40 C21.68 40 20.36 40 19 40 C19.12375 39.113125 19.2475 38.22625 19.375 37.3125 C19.36090269 33.74986786 19.36090269 33.74986786 16.1875 31.6875 C15.63835937 31.28917969 15.08921875 30.89085937 14.5234375 30.48046875 C12.10046379 28.12583532 11.55093414 25.34153225 10.6484375 22.15625 C9.83596314 19.45452804 8.64308208 17.28602724 7 15 C6.34 14.67 5.68 14.34 5 14 C4.33333333 12.33333333 3.66666667 10.66666667 3 9 C2.278125 7.96875 1.55625 6.9375 0.8125 5.875 C0.214375 4.92625 -0.38375 3.9775 -1 3 C-0.67 2.01 -0.34 1.02 0 0 Z " fill="#2E538A" transform="translate(488,615)"/>
<path d="M0 0 C0.99 0.33 1.98 0.66 3 1 C-3.50154438 10.75231658 -15.20201593 15.8297654 -26.23771667 18.55198669 C-29.58807602 19.09537975 -32.78189713 19.11947128 -36.17700195 19.11352539 C-36.87998917 19.11367142 -37.58297638 19.11381744 -38.30726624 19.1139679 C-40.61763659 19.11327441 -42.92792508 19.10550857 -45.23828125 19.09765625 C-46.84539241 19.09579006 -48.45250415 19.09436711 -50.05961609 19.09336853 C-54.27968937 19.08955915 -58.49972797 19.07974239 -62.7197876 19.06866455 C-67.02998384 19.05841643 -71.3401857 19.05386363 -75.65039062 19.04882812 C-84.10027629 19.03811867 -92.55013383 19.02106127 -101 19 C-101 18.67 -101 18.34 -101 18 C-78.56 17.67 -56.12 17.34 -33 17 C-33 16.67 -33 16.34 -33 16 C-32.42894531 15.98582031 -31.85789062 15.97164063 -31.26953125 15.95703125 C-23.65351773 15.50903045 -16.86224773 13.32244573 -10 10 C-9.67 9.34 -9.34 8.68 -9 8 C-8.34 8 -7.68 8 -7 8 C-7 7.34 -7 6.68 -7 6 C-6.01 5.67 -5.02 5.34 -4 5 C-2.79117904 2.99983534 -2.79117904 2.99983534 -2 1 C-1.01 1.495 -1.01 1.495 0 2 C0 1.34 0 0.68 0 0 Z " fill="#416292" transform="translate(513,481)"/>
<path d="M0 0 C3.15370836 0.13250875 4.91342287 0.54709859 7.69140625 1.94921875 C10.66101732 3.39842963 13.55183852 4.60725904 16.69140625 5.63671875 C20.25390625 7.13671875 20.25390625 7.13671875 21.44140625 9.07421875 C21.70953125 9.75484375 21.97765625 10.43546875 22.25390625 11.13671875 C24.78833031 13.36488861 24.78833031 13.36488861 27.25390625 15.13671875 C26.92390625 16.12671875 26.59390625 17.11671875 26.25390625 18.13671875 C25.30515625 17.27046875 24.35640625 16.40421875 23.37890625 15.51171875 C19.03027221 11.77419621 14.25405836 8.91737286 9.25390625 6.13671875 C8.61839844 5.770625 7.98289062 5.40453125 7.328125 5.02734375 C-2.69672252 0.72288945 -17.49288801 1.76967498 -27.43359375 5.63671875 C-29.21944988 6.43735164 -30.99748544 7.2577056 -32.74609375 8.13671875 C-33.07609375 7.14671875 -33.40609375 6.15671875 -33.74609375 5.13671875 C-32.42609375 5.13671875 -31.10609375 5.13671875 -29.74609375 5.13671875 C-29.74609375 4.47671875 -29.74609375 3.81671875 -29.74609375 3.13671875 C-19.98738149 0.47525177 -10.05088258 0.36682053 0 0 Z " fill="#2B5189" transform="translate(700.74609375,593.86328125)"/>
<path d="M0 0 C0 0.66 0 1.32 0 2 C1.24136719 2.26554687 2.48273437 2.53109375 3.76171875 2.8046875 C5.40369522 3.16123096 7.04561959 3.51801444 8.6875 3.875 C9.50412109 4.04902344 10.32074219 4.22304688 11.16210938 4.40234375 C15.27820831 5.30221963 19.14072444 6.25507296 23 8 C23 8.66 23 9.32 23 10 C25.49064888 10.68707555 27.37886292 11 30 11 C30 11.66 30 12.32 30 13 C31.32 13 32.64 13 34 13 C34.66 13.99 35.32 14.98 36 16 C36.825 16.28875 37.65 16.5775 38.5 16.875 C41 18 41 18 42.15625 20.5703125 C42.4346875 21.37210937 42.713125 22.17390625 43 23 C42.175 22.50371094 41.35 22.00742187 40.5 21.49609375 C27.27031546 13.66231928 13.93622198 7.76241541 -1 4 C-2.31097656 3.66162109 -2.31097656 3.66162109 -3.6484375 3.31640625 C-5.42876693 2.86351543 -7.21369437 2.42871335 -9 2 C-4.13793103 -1.24137931 -4.13793103 -1.24137931 0 0 Z " fill="#385B91" transform="translate(523,343)"/>
<path d="M0 0 C15.51 0 31.02 0 47 0 C49.475 4.455 49.475 4.455 52 9 C51.01 9 50.02 9 49 9 C48.34 7.02 47.68 5.04 47 3 C46.4406778 2.99191315 45.88135559 2.98382629 45.30508423 2.97549438 C39.49774955 2.88961651 33.69076285 2.7901211 27.88378906 2.68261719 C25.71490307 2.64427009 23.54595223 2.60942745 21.37695312 2.578125 C18.26408668 2.53259862 15.15166894 2.47458427 12.0390625 2.4140625 C11.065065 2.40251129 10.0910675 2.39096008 9.08755493 2.37905884 C8.18677216 2.35918915 7.28598938 2.33931946 6.35791016 2.31884766 C5.56293121 2.30552399 4.76795227 2.29220032 3.94888306 2.2784729 C2 2 2 2 0 0 Z " fill="#30528B" transform="translate(412,566)"/>
<path d="M0 0 C0.721875 0.268125 1.44375 0.53625 2.1875 0.8125 C1.506875 1.493125 0.82625 2.17375 0.125 2.875 C-0.33261719 3.34164062 -0.79023437 3.80828125 -1.26171875 4.2890625 C-2.8125 5.8125 -2.8125 5.8125 -4.45703125 7.2109375 C-10.54866158 12.62877576 -13.48562587 19.52169073 -16.8125 26.8125 C-17.1425 26.8125 -17.4725 26.8125 -17.8125 26.8125 C-16.9375 19.0625 -16.9375 19.0625 -15.8125 16.8125 C-15.1525 16.8125 -14.4925 16.8125 -13.8125 16.8125 C-13.8125 15.1625 -13.8125 13.5125 -13.8125 11.8125 C-12.8225 11.8125 -11.8325 11.8125 -10.8125 11.8125 C-11.1425 10.4925 -11.4725 9.1725 -11.8125 7.8125 C-10.8225 7.4825 -9.8325 7.1525 -8.8125 6.8125 C-8.4825 6.1525 -8.1525 5.4925 -7.8125 4.8125 C-3.58342511 -0.23889501 -3.58342511 -0.23889501 0 0 Z " fill="#294E8A" transform="translate(664.8125,601.1875)"/>
<path d="M0 0 C1.32 0.33 2.64 0.66 4 1 C4.33 2.32 4.66 3.64 5 5 C5.66 5 6.32 5 7 5 C7 6.65 7 8.3 7 10 C7.99 10.33 8.98 10.66 10 11 C10.6875 13.0625 10.6875 13.0625 11 15 C11.66 15 12.32 15 13 15 C14.33333333 18.33333333 15.66666667 21.66666667 17 25 C17.66 25 18.32 25 19 25 C19 26.32 19 27.64 19 29 C19.66 29 20.32 29 21 29 C21 29.66 21 30.32 21 31 C21.66 31 22.32 31 23 31 C22.67 32.32 22.34 33.64 22 35 C16.73026364 27.6527813 11.83569056 20.11488894 7.0625 12.4375 C6.03672852 10.80071289 6.03672852 10.80071289 4.99023438 9.13085938 C0 1.12953453 0 1.12953453 0 0 Z " fill="#294E86" transform="translate(600,646)"/>
<path d="M0 0 C1.32 0 2.64 0 4 0 C4 0.66 4 1.32 4 2 C5.65 2.33 7.3 2.66 9 3 C9 3.99 9 4.98 9 6 C9.639375 6.12375 10.27875 6.2475 10.9375 6.375 C11.618125 6.58125 12.29875 6.7875 13 7 C13.33 7.66 13.66 8.32 14 9 C14.66 9 15.32 9 16 9 C16.33 10.65 16.66 12.3 17 14 C17.66 14 18.32 14 19 14 C19.66 15.65 20.32 17.3 21 19 C21.66 19 22.32 19 23 19 C23.33 20.98 23.66 22.96 24 25 C21.16631045 22.27241776 18.74664115 19.44609394 16.375 16.3125 C12.10486824 10.89456966 7.20845768 6.49205272 2 2 C1.34 1.34 0.68 0.68 0 0 Z " fill="#2A4F88" transform="translate(566,366)"/>
<path d="M0 0 C1.9375 0.75 1.9375 0.75 4 2 C4.33333333 3.33333333 4.66666667 4.66666667 5 6 C5.639375 6.2475 6.27875 6.495 6.9375 6.75 C9 8 9 8 9.70703125 9.8984375 C10.19958578 11.91826542 10.60494108 13.95886227 11 16 C11.99 16 12.98 16 14 16 C14.53229326 17.26607607 15.05044544 18.53810412 15.5625 19.8125 C15.85253906 20.52019531 16.14257812 21.22789062 16.44140625 21.95703125 C17 24 17 24 16 27 C13.89151411 23.62768057 11.78899261 20.251681 9.6875 16.875 C9.09259766 15.92367187 8.49769531 14.97234375 7.88476562 13.9921875 C5.03876664 9.41315002 2.27974114 4.88868677 0 0 Z " fill="#2A4F89" transform="translate(558,579)"/>
<path d="M0 0 C8.46121865 4.86520072 15.24611325 12.52445547 18 22 C18 23.32 18 24.64 18 26 C17.34 26 16.68 26 16 26 C15.81824219 25.40832031 15.63648438 24.81664062 15.44921875 24.20703125 C14.03429011 19.75907609 12.52019642 15.96030865 10 12 C10 11.34 10 10.68 10 10 C9.34 10 8.68 10 8 10 C8 9.34 8 8.68 8 8 C7.34 8 6.68 8 6 8 C6 7.34 6 6.68 6 6 C4.865625 5.71125 3.73125 5.4225 2.5625 5.125 C1.386875 4.75375 0.21125 4.3825 -1 4 C-1.33 3.34 -1.66 2.68 -2 2 C-1.34 2 -0.68 2 0 2 C0 1.34 0 0.68 0 0 Z " fill="#2C5186" transform="translate(503,415)"/>
<path d="M0 0 C2.475 0.99 2.475 0.99 5 2 C4.67 3.32 4.34 4.64 4 6 C4.99 5.67 5.98 5.34 7 5 C7.33 5.99 7.66 6.98 8 8 C6.02 8 4.04 8 2 8 C2.33 9.32 2.66 10.64 3 12 C4.32 12.33 5.64 12.66 7 13 C5.68 14.32 4.36 15.64 3 17 C2.01 16.67 1.02 16.34 0 16 C0 10.72 0 5.44 0 0 Z " fill="#2458AA" transform="translate(0,302)"/>
<path d="M0 0 C3.37368681 3.07513046 5.50901962 6.28518856 7.75 10.25 C8.67039062 11.86648438 8.67039062 11.86648438 9.609375 13.515625 C10.06828125 14.33546875 10.5271875 15.1553125 11 16 C10.34 16.66 9.68 17.32 9 18 C8.67 17.01 8.34 16.02 8 15 C6.68 15 5.36 15 4 15 C4 13.02 4 11.04 4 9 C3.01 8.67 2.02 8.34 1 8 C0.67 5.36 0.34 2.72 0 0 Z " fill="#264E8A" transform="translate(511,654)"/>
<path d="M0 0 C3.26899943 3.26899943 5.33616257 6.56235358 7.6875 10.5 C8.10322266 11.17675781 8.51894531 11.85351562 8.94726562 12.55078125 C12 17.63365917 12 17.63365917 12 21 C7.92115955 19.64038652 7.06183628 17.69708575 5 14 C4.75 11.125 4.75 11.125 5 9 C4.01 9 3.02 9 2 9 C1.34 6.03 0.68 3.06 0 0 Z " fill="#264F89" transform="translate(464,576)"/>
<path d="M0 0 C0.33 0.66 0.66 1.32 1 2 C5.95 2 10.9 2 16 2 C16.33 2.66 16.66 3.32 17 4 C11.41687424 5.30550702 6.31819686 4.78084225 0.6875 4.1875 C-0.69018555 4.0627832 -0.69018555 4.0627832 -2.09570312 3.93554688 C-2.96775391 3.84724609 -3.83980469 3.75894531 -4.73828125 3.66796875 C-5.92997925 3.54844849 -5.92997925 3.54844849 -7.14575195 3.42651367 C-8.06360474 3.2153894 -8.06360474 3.2153894 -9 3 C-9.33 2.34 -9.66 1.68 -10 1 C-6.7 0.67 -3.4 0.34 0 0 Z " fill="#3A5D92" transform="translate(496,339)"/>
<path d="M0 0 C0.66 0 1.32 0 2 0 C1.67 7.92 1.34 15.84 1 24 C-2.4058943 19.45880759 -2.25847519 17.29581706 -1.75 12 C-1.67072266 10.93265625 -1.67072266 10.93265625 -1.58984375 9.84375 C-1.32002412 6.48041688 -0.97777727 3.23677994 0 0 Z " fill="#1D4483" transform="translate(645,629)"/>
<path d="M0 0 C0.99 0.33 1.98 0.66 3 1 C0.9616878 2.75403721 -1.08045769 4.50324973 -3.125 6.25 C-3.97964844 6.98669922 -3.97964844 6.98669922 -4.8515625 7.73828125 C-14.5453125 16 -14.5453125 16 -18 16 C-16.64905419 11.94716257 -14.62004582 11.12943872 -11 9 C-8.625 8.25 -8.625 8.25 -7 8 C-7 7.34 -7 6.68 -7 6 C-6.34 6 -5.68 6 -5 6 C-5 5.34 -5 4.68 -5 4 C-4.34 4 -3.68 4 -3 4 C-2.67 3.01 -2.34 2.02 -2 1 C-1.34 0.67 -0.68 0.34 0 0 Z " fill="#DBECF6" transform="translate(575,528)"/>
<path d="M0 0 C2 2 4 4 6 6 C5.34 6 4.68 6 4 6 C3.5978125 7.2065625 3.5978125 7.2065625 3.1875 8.4375 C2.795625 9.283125 2.40375 10.12875 2 11 C1.01 11.33 0.02 11.66 -1 12 C-1.2165625 10.6078125 -1.2165625 10.6078125 -1.4375 9.1875 C-1.92100111 5.99274889 -1.92100111 5.99274889 -3 3 C-2.01 2.67 -1.02 2.34 0 2 C0 1.34 0 0.68 0 0 Z " fill="#2658A8" transform="translate(93,101)"/>
<path d="M0 0 C0.66 0.33 1.32 0.66 2 1 C2 1.66 2 2.32 2 3 C3.32 3 4.64 3 6 3 C6.99 4.485 6.99 4.485 8 6 C8.825 6.28875 9.65 6.5775 10.5 6.875 C13 8 13 8 14.15625 10.5703125 C14.4346875 11.37210937 14.713125 12.17390625 15 13 C14.01257813 12.43410156 13.02515625 11.86820312 12.0078125 11.28515625 C10.71355794 10.54424241 9.41928621 9.80335855 8.125 9.0625 C7.47402344 8.68931641 6.82304688 8.31613281 6.15234375 7.93164062 C2.61253166 5.89866922 2.61253166 5.89866922 -1 4 C-0.67 2.68 -0.34 1.36 0 0 Z " fill="#375B8F" transform="translate(551,353)"/>
<path d="M0 0 C1.8125 0.5625 1.8125 0.5625 4 2 C5.01965427 4.32481174 6.02059602 6.65794699 7 9 C7.99 9.33 8.98 9.66 10 10 C11.1875 13.5625 11.1875 13.5625 12 17 C11.34 17.33 10.68 17.66 10 18 C8.32605999 15.37957157 6.6621165 12.75294095 5 10.125 C4.52304687 9.37863281 4.04609375 8.63226562 3.5546875 7.86328125 C3.10351562 7.14785156 2.65234375 6.43242188 2.1875 5.6953125 C1.76855469 5.03547363 1.34960938 4.37563477 0.91796875 3.69580078 C0 2 0 2 0 0 Z " fill="#2C528A" transform="translate(547,561)"/>
<path d="M0 0 C0.66 0 1.32 0 2 0 C2 0.66 2 1.32 2 2 C2.66 2 3.32 2 4 2 C4 3.32 4 4.64 4 6 C3.34 6 2.68 6 2 6 C2 6.66 2 7.32 2 8 C-0.64 7.67 -3.28 7.34 -6 7 C-4.71034824 5.62437146 -3.37310707 4.29233607 -2 3 C-1.34 3 -0.68 3 0 3 C0 2.01 0 1.02 0 0 Z " fill="#2252A2" transform="translate(531,339)"/>
<path d="M0 0 C0 0.33 0 0.66 0 1 C-0.93199219 1.01417969 -1.86398437 1.02835938 -2.82421875 1.04296875 C-12.22871602 1.39480535 -19.3551091 3.04929944 -28 7 C-28.33 6.01 -28.66 5.02 -29 4 C-27.68 4 -26.36 4 -25 4 C-25 3.34 -25 2.68 -25 2 C-16.63994116 -0.38858824 -8.61264844 -0.190218 0 0 Z " fill="#3A5C8E" transform="translate(696,595)"/>
<path d="M0 0 C1.67542976 0.28604898 3.34385343 0.61781233 5 1 C4.01 2.485 4.01 2.485 3 4 C2.30686092 5.65583225 1.63525576 7.32110979 1 9 C0.34 9 -0.32 9 -1 9 C-1.33 9.66 -1.66 10.32 -2 11 C-3.22718053 5.60040568 -3.22718053 5.60040568 -2.125 2.6875 C-1 1 -1 1 0 0 Z " fill="#2356A8" transform="translate(319,128)"/>
<path d="M0 0 C0.66 0.99 1.32 1.98 2 3 C0.02 3.99 0.02 3.99 -2 5 C-1.67 6.32 -1.34 7.64 -1 9 C-1.66 9 -2.32 9 -3 9 C-3.33 9.99 -3.66 10.98 -4 12 C-7 10 -7 10 -7.6875 7.875 C-7.790625 7.25625 -7.89375 6.6375 -8 6 C-7.01 6 -6.02 6 -5 6 C-3.95107762 4.36368108 -2.95093297 2.69514137 -2 1 C-1.34 0.67 -0.68 0.34 0 0 Z M2 1 C2.66 1 3.32 1 4 1 C3.67 1.66 3.34 2.32 3 3 C2.67 2.34 2.34 1.68 2 1 Z " fill="#1F51A4" transform="translate(172,476)"/>
<path d="M0 0 C1.88414642 3.19457351 2.23819737 5.51502629 2.1953125 9.203125 C2.18886719 10.1828125 2.18242188 11.1625 2.17578125 12.171875 C2.15902344 13.18765625 2.14226563 14.2034375 2.125 15.25 C2.11597656 16.28125 2.10695313 17.3125 2.09765625 18.375 C2.07412011 20.91690287 2.04124023 23.4583328 2 26 C1.67 26 1.34 26 1 26 C0.63496057 22.98012839 0.28269772 19.95965035 -0.0625 16.9375 C-0.16626953 16.08994141 -0.27003906 15.24238281 -0.37695312 14.36914062 C-0.94186047 9.32393367 -0.96798903 4.98886652 0 0 Z " fill="#416393" transform="translate(521,439)"/>
<path d="M0 0 C0 0.99 0 1.98 0 3 C-1.98 3.99 -3.96 4.98 -6 6 C-5.67 8.64 -5.34 11.28 -5 14 C-7.71595986 10.8459821 -8.96846241 9.12615036 -10 5 C-6.7 3.35 -3.4 1.7 0 0 Z " fill="#345687" transform="translate(552,547)"/>
<path d="M0 0 C0.66 0 1.32 0 2 0 C2.66 1.65 3.32 3.3 4 5 C4.99 5 5.98 5 7 5 C7 6.32 7 7.64 7 9 C7.66 9 8.32 9 9 9 C9.33 11.31 9.66 13.62 10 16 C0 4.46153846 0 4.46153846 0 0 Z " fill="#2F5389" transform="translate(575,606)"/>
<path d="M0 0 C0.66 0.66 1.32 1.32 2 2 C1.9765625 5.0390625 1.9765625 5.0390625 1.625 8.625 C1.51414062 9.81351562 1.40328125 11.00203125 1.2890625 12.2265625 C1.19367187 13.14179688 1.09828125 14.05703125 1 15 C0.34 15 -0.32 15 -1 15 C-1 16.32 -1 17.64 -1 19 C-1.66 19 -2.32 19 -3 19 C-2.01 12.73 -1.02 6.46 0 0 Z " fill="#2E5389" transform="translate(606,466)"/>
<path d="M0 0 C0.99 0 1.98 0 3 0 C6.05561972 5.19455352 8.68171346 10.06771057 10 16 C9.34 16.33 8.68 16.66 8 17 C4.04 8.585 4.04 8.585 0 0 Z " fill="#2E548A" transform="translate(590,391)"/>
<path d="M0 0 C1.65 0.33 3.3 0.66 5 1 C4.625 2.9375 4.625 2.9375 4 5 C3.01 5.495 3.01 5.495 2 6 C1.34 5.67 0.68 5.34 0 5 C-0.66 6.65 -1.32 8.3 -2 10 C-3.39195915 5.82412255 -1.82323219 3.86525224 0 0 Z " fill="#2456A7" transform="translate(191,338)"/>
<path d="M0 0 C5.59282842 1.36410449 8.91193811 4.15383526 13 8 C12.34 9.32 11.68 10.64 11 12 C10.54109375 11.46890625 10.0821875 10.9378125 9.609375 10.390625 C6.50506283 6.81675301 3.41818688 3.28145941 0 0 Z " fill="#D7E8F4" transform="translate(504,415)"/>
<path d="M0 0 C0 0.66 0 1.32 0 2 C2.97 2.495 2.97 2.495 6 3 C6 3.66 6 4.32 6 5 C1.05 4.01 -3.9 3.02 -9 2 C-4.13793103 -1.24137931 -4.13793103 -1.24137931 0 0 Z " fill="#3F6297" transform="translate(523,343)"/>
<path d="M0 0 C1.65 0.33 3.3 0.66 5 1 C4.67 2.65 4.34 4.3 4 6 C0.25 7.125 0.25 7.125 -2 6 C-1.34 4.02 -0.68 2.04 0 0 Z " fill="#2255A6" transform="translate(347,203)"/>
<path d="M0 0 C1.2065625 0.0309375 1.2065625 0.0309375 2.4375 0.0625 C2.1075 2.0425 1.7775 4.0225 1.4375 6.0625 C0.1175 6.3925 -1.2025 6.7225 -2.5625 7.0625 C-2.94383299 5.0710944 -3.27575582 3.06970923 -3.5625 1.0625 C-2.5625 0.0625 -2.5625 0.0625 0 0 Z " fill="#2355A7" transform="translate(331.5625,107.9375)"/>
<path d="M0 0 C0.66 0 1.32 0 2 0 C1.6875 3.375 1.6875 3.375 1 7 C0.01 7.66 -0.98 8.32 -2 9 C-2 8.01 -2 7.02 -2 6 C-1.34 6 -0.68 6 0 6 C-0.2784375 4.7934375 -0.2784375 4.7934375 -0.5625 3.5625 C-0.706875 2.716875 -0.85125 1.87125 -1 1 C-0.67 0.67 -0.34 0.34 0 0 Z M-5 8 C-4.34 8.33 -3.68 8.66 -3 9 C-4.65 10.65 -6.3 12.3 -8 14 C-6.125 9.125 -6.125 9.125 -5 8 Z " fill="#2558AA" transform="translate(117,306)"/>
<path d="M0 0 C2.97 0.33 5.94 0.66 9 1 C8.67 2.32 8.34 3.64 8 5 C4.88742431 5 2.89234315 4.82638376 0 4 C0 2.68 0 1.36 0 0 Z " fill="#2356A8" transform="translate(166,137)"/>
<path d="M0 0 C0.66 0.66 1.32 1.32 2 2 C-0.82522609 6.67248931 -3.67760044 9.65996398 -8 13 C-8.66 12.67 -9.32 12.34 -10 12 C-8.9171875 11.2575 -8.9171875 11.2575 -7.8125 10.5 C-4.34111489 7.41432434 -2.2836532 4.00368136 0 0 Z " fill="#E0EEF7" transform="translate(518,477)"/>
<path d="M0 0 C0.33 0 0.66 0 1 0 C0.22095672 11.52164009 0.22095672 11.52164009 -2 17 C-2.33 17 -2.66 17 -3 17 C-3.34548714 10.66606918 -2.29342747 5.89738492 0 0 Z " fill="#D5E8F5" transform="translate(604,472)"/>
<path d="M0 0 C1.65 0 3.3 0 5 0 C5.33 0.99 5.66 1.98 6 3 C4.35 3.33 2.7 3.66 1 4 C0.67 4.99 0.34 5.98 0 7 C-0.99 7 -1.98 7 -3 7 C-1.125 2.25 -1.125 2.25 0 0 Z " fill="#2154A6" transform="translate(278,352)"/>
<path d="M0 0 C0.66 0.66 1.32 1.32 2 2 C1.625 3.875 1.625 3.875 1 6 C1 7.32 1 8.64 1 10 C-0.65 10.33 -2.3 10.66 -4 11 C-3.67 9.68 -3.34 8.36 -3 7 C-2.34 7 -1.68 7 -1 7 C-1.20625 6.401875 -1.4125 5.80375 -1.625 5.1875 C-2 3 -2 3 0 0 Z " fill="#1F52A4" transform="translate(250,265)"/>
<path d="M0 0 C0.66 0.33 1.32 0.66 2 1 C2 1.66 2 2.32 2 3 C3.32 2.34 4.64 1.68 6 1 C4.9024777 3.99324263 4.32317108 4.84610901 1.375 6.25 C0.59125 6.4975 -0.1925 6.745 -1 7 C-1.33 5.02 -1.66 3.04 -2 1 C-1.34 0.67 -0.68 0.34 0 0 Z " fill="#2356A9" transform="translate(227,170)"/>
<path d="M0 0 C-0.625 1.875 -0.625 1.875 -2 4 C-5.125 5.25 -5.125 5.25 -8 6 C-7.75 4.125 -7.75 4.125 -7 2 C-4.41847698 0.27898465 -3.15081975 0 0 0 Z " fill="#2254A6" transform="translate(231,424)"/>
<path d="M0 0 C0.625 1.8125 0.625 1.8125 1 4 C0.01 5.485 0.01 5.485 -1 7 C-2.32 7 -3.64 7 -5 7 C-5.33 5.68 -5.66 4.36 -6 3 C-5.195625 2.690625 -4.39125 2.38125 -3.5625 2.0625 C-1.10919595 1.23664655 -1.10919595 1.23664655 0 0 Z " fill="#2255A8" transform="translate(206,333)"/>
<path d="M0 0 C0 0.99 0 1.98 0 3 C-2.64 3.99 -5.28 4.98 -8 6 C-8 4.68 -8 3.36 -8 2 C-5.09399739 0.74335022 -3.20395416 0 0 0 Z " fill="#1E4683" transform="translate(717,680)"/>
<path d="M0 0 C0.99 0.33 1.98 0.66 3 1 C2.67 1.99 2.34 2.98 2 4 C1.77281504 6.56634861 1.58391816 9.11678107 1.4375 11.6875 C1.39431641 12.38939453 1.35113281 13.09128906 1.30664062 13.81445312 C1.2008264 15.54275206 1.09993419 17.2713511 1 19 C0.67 19 0.34 19 0 19 C0 12.73 0 6.46 0 0 Z " fill="#18438B" transform="translate(738,630)"/>
<path d="M0 0 C1.06546953 3.1964086 1.07427838 5.65747276 1 9 C-0.33333333 9 -1.66666667 9 -3 9 C-3 7.35 -3 5.7 -3 4 C-2.34 4 -1.68 4 -1 4 C-0.67 2.68 -0.34 1.36 0 0 Z " fill="#1F51A5" transform="translate(460,170)"/>
<path d="M0 0 C3.58273331 1.65356922 6.80973467 3.67980703 10 6 C10 6.66 10 7.32 10 8 C9.01 8 8.02 8 7 8 C7 7.34 7 6.68 7 6 C6.34 6 5.68 6 5 6 C5 5.34 5 4.68 5 4 C4.01 4 3.02 4 2 4 C2 3.34 2 2.68 2 2 C1.34 2 0.68 2 0 2 C0 1.34 0 0.68 0 0 Z " fill="#244A84" transform="translate(660,675)"/>
<path d="M0 0 C0.99 0.33 1.98 0.66 3 1 C2.01 1.495 2.01 1.495 1 2 C1.04125 2.928125 1.0825 3.85625 1.125 4.8125 C1 8 1 8 -1 11 C-1.66 10.67 -2.32 10.34 -3 10 C-2.01 6.7 -1.02 3.4 0 0 Z " fill="#294E87" transform="translate(736,649)"/>
<path d="M0 0 C0.99 0 1.98 0 3 0 C3.33 1.65 3.66 3.3 4 5 C4.66 5 5.32 5 6 5 C6.66 6.65 7.32 8.3 8 10 C7.01 10.495 7.01 10.495 6 11 C4.02 7.37 2.04 3.74 0 0 Z " fill="#2C4F87" transform="translate(585,622)"/>
<path d="M0 0 C0.66 0 1.32 0 2 0 C0.43358249 4.30764815 -1.68336156 8.06171464 -4 12 C-4.9435441 9.46100862 -5.16906025 8.39090725 -4.07421875 5.859375 C-3.61660156 5.16328125 -3.15898438 4.4671875 -2.6875 3.75 C-2.23761719 3.04359375 -1.78773438 2.3371875 -1.32421875 1.609375 C-0.88722656 1.07828125 -0.45023438 0.5471875 0 0 Z " fill="#DCEEF8" transform="translate(594,502)"/>
<path d="M0 0 C2.64 0.33 5.28 0.66 8 1 C8 2.32 8 3.64 8 5 C7.01 5.33 6.02 5.66 5 6 C5 5.34 5 4.68 5 4 C4.360625 3.71125 3.72125 3.4225 3.0625 3.125 C1 2 1 2 0 0 Z " fill="#144592" transform="translate(685,687)"/>
<path d="M0 0 C2.92824652 2.92824652 4.27239967 5.2979993 6 9 C4.68 9 3.36 9 2 9 C1.34 6.03 0.68 3.06 0 0 Z " fill="#32578C" transform="translate(464,576)"/>
<path d="M0 0 C1.125 1.6875 1.125 1.6875 2 4 C1.25 6.6875 1.25 6.6875 0 9 C-0.99 9.495 -0.99 9.495 -2 10 C-3.125 6.25 -3.125 6.25 -2 4 C-1.34 4 -0.68 4 0 4 C0 2.68 0 1.36 0 0 Z " fill="#1B498F" transform="translate(605,481)"/>
<path d="M0 0 C0.33 0 0.66 0 1 0 C1 2.64 1 5.28 1 8 C-0.65 8 -2.3 8 -4 8 C-2.68 5.36 -1.36 2.72 0 0 Z " fill="#2051A0" transform="translate(324,463)"/>
<path d="M0 0 C0.99 0.33 1.98 0.66 3 1 C2.01 1.495 2.01 1.495 1 2 C0.34444881 4.52733235 0.34444881 4.52733235 0 7 C-1.32 6.34 -2.64 5.68 -4 5 C-4 4.34 -4 3.68 -4 3 C-3.01 3 -2.02 3 -1 3 C-0.67 2.01 -0.34 1.02 0 0 Z M-3 6 C-2.67 6.66 -2.34 7.32 -2 8 C-2.99 7.67 -3.98 7.34 -5 7 C-4.34 6.67 -3.68 6.34 -3 6 Z " fill="#2557A9" transform="translate(69,403)"/>
<path d="M0 0 C0.33 1.32 0.66 2.64 1 4 C-0.98 5.32 -2.96 6.64 -5 8 C-4.625 5.0625 -4.625 5.0625 -4 2 C-3.34 1.67 -2.68 1.34 -2 1 C-1.34 1.33 -0.68 1.66 0 2 C0 1.34 0 0.68 0 0 Z " fill="#2458AA" transform="translate(71,371)"/>
<path d="M0 0 C0.99 0.495 0.99 0.495 2 1 C2.73075648 3.3140622 3.40138258 5.64828869 4 8 C2.68 8.33 1.36 8.66 0 9 C0 6.03 0 3.06 0 0 Z " fill="#2458A9" transform="translate(0,320)"/>
<path d="M0 0 C0.99 0.33 1.98 0.66 3 1 C3.625 3.375 3.625 3.375 4 6 C3.34 6.66 2.68 7.32 2 8 C2 7.34 2 6.68 2 6 C1.34 6 0.68 6 0 6 C0 4.02 0 2.04 0 0 Z " fill="#2457AA" transform="translate(406,9)"/>
<path d="M0 0 C0.66 0 1.32 0 2 0 C2 0.66 2 1.32 2 2 C2.99 2.33 3.98 2.66 5 3 C5 4.32 5 5.64 5 7 C5.66 7 6.32 7 7 7 C6.67 8.32 6.34 9.64 6 11 C4.02 7.37 2.04 3.74 0 0 Z " fill="#2E5086" transform="translate(592,633)"/>
<path d="M0 0 C1.98 0.66 3.96 1.32 6 2 C4.68 3.32 3.36 4.64 2 6 C1.01 5.01 0.02 4.02 -1 3 C-0.67 2.01 -0.34 1.02 0 0 Z " fill="#1E51A3" transform="translate(455,264)"/>
<path d="M0 0 C0.99 0.33 1.98 0.66 3 1 C3.33 2.65 3.66 4.3 4 6 C2.68 6.33 1.36 6.66 0 7 C-0.38133299 5.0085944 -0.71325582 3.00720923 -1 1 C-0.67 0.67 -0.34 0.34 0 0 Z " fill="#275AAC" transform="translate(171,226)"/>
<path d="M0 0 C2.00720923 0.28674418 4.0085944 0.61866701 6 1 C4.71937515 2.7074998 3.38232443 4.37373596 2 6 C1.34 6 0.68 6 0 6 C-0.38218767 4.34385343 -0.71395102 2.67542976 -1 1 C-0.67 0.67 -0.34 0.34 0 0 Z " fill="#295BAB" transform="translate(71,143)"/>
<path d="M0 0 C1.65 0 3.3 0 5 0 C5 0.99 5 1.98 5 3 C4.38125 3.28875 3.7625 3.5775 3.125 3.875 C0.86674235 4.93720042 0.86674235 4.93720042 -1 7 C-0.67 4.69 -0.34 2.38 0 0 Z " fill="#2559A9" transform="translate(164,0)"/>
<path d="M0 0 C2.64752004 2.57784846 4.94432065 4.91648098 7 8 C4 8 4 8 1.8125 6.25 C0 4 0 4 0 0 Z " fill="#32558A" transform="translate(654,667)"/>
<path d="M0 0 C0.66 0 1.32 0 2 0 C1.5205537 4.21912747 0.83374881 6.79663178 -2 10 C-2.17942163 6.05272412 -2.09350689 3.4019487 0 0 Z " fill="#D8EBF6" transform="translate(733,653)"/>
<path d="M0 0 C2.25245881 2.68841859 3.88213958 4.64641875 5 8 C4.01 8 3.02 8 2 8 C0.93224776 6.03533587 -0.06553465 4.03144641 -1 2 C-0.67 1.34 -0.34 0.68 0 0 Z " fill="#365A90" transform="translate(488,615)"/>
<path d="M0 0 C0.99 0.495 0.99 0.495 2 1 C2.99 0.67 3.98 0.34 5 0 C5.33 0.99 5.66 1.98 6 3 C5.01 4.485 5.01 4.485 4 6 C4 5.34 4 4.68 4 4 C3.34 4 2.68 4 2 4 C1.67 4.66 1.34 5.32 1 6 C0.67 4.02 0.34 2.04 0 0 Z " fill="#2455A9" transform="translate(149,412)"/>
<path d="M0 0 C0.33 0.66 0.66 1.32 1 2 C-1.97 4.475 -1.97 4.475 -5 7 C-5.33 5.68 -5.66 4.36 -6 3 C-4.02 2.01 -2.04 1.02 0 0 Z " fill="#2356A8" transform="translate(128,345)"/>
<path d="M0 0 C2.475 0.495 2.475 0.495 5 1 C4.67 3.64 4.34 6.28 4 9 C1.3144406 6.3144406 0.93950026 3.62378672 0 0 Z " fill="#275AAB" transform="translate(64,259)"/>
<path d="M0 0 C1.32 0.33 2.64 0.66 4 1 C4 1.66 4 2.32 4 3 C2.37373596 4.38232443 0.7074998 5.71937515 -1 7 C-2 4 -2 4 -1.0625 1.8125 C-0.5365625 0.9153125 -0.5365625 0.9153125 0 0 Z " fill="#1F52A5" transform="translate(460,191)"/>
<path d="M0 0 C0.33 0.99 0.66 1.98 1 3 C-1.475 4.485 -1.475 4.485 -4 6 C-4.33 5.01 -4.66 4.02 -5 3 C-2.25 0 -2.25 0 0 0 Z " fill="#2254A7" transform="translate(229,403)"/>
<path d="M0 0 C0.99 0.99 1.98 1.98 3 3 C0.69 4.32 -1.62 5.64 -4 7 C-3.34 5.35 -2.68 3.7 -2 2 C-1.34 2 -0.68 2 0 2 C0 1.34 0 0.68 0 0 Z " fill="#2355A8" transform="translate(179,371)"/>
<path d="M0 0 C1.32 0 2.64 0 4 0 C4 0.66 4 1.32 4 2 C5.65 2.33 7.3 2.66 9 3 C9 3.66 9 4.32 9 5 C8.01 5.33 7.02 5.66 6 6 C2.8125 3.625 2.8125 3.625 0 1 C0 0.67 0 0.34 0 0 Z " fill="#385E94" transform="translate(566,366)"/>
<path d="M0 0 C0.66 0.33 1.32 0.66 2 1 C2 1.66 2 2.32 2 3 C3.32 3 4.64 3 6 3 C6 3.66 6 4.32 6 5 C3.69 4.67 1.38 4.34 -1 4 C-0.67 2.68 -0.34 1.36 0 0 Z " fill="#28508F" transform="translate(551,353)"/>
<path d="M0 0 C0.66 0 1.32 0 2 0 C2 0.66 2 1.32 2 2 C2.66 2 3.32 2 4 2 C4 2.66 4 3.32 4 4 C2.02 4.33 0.04 4.66 -2 5 C-2 2 -2 2 0 0 Z " fill="#285AAD" transform="translate(239,347)"/>
<path d="M0 0 C1.65 0.33 3.3 0.66 5 1 C4.67 2.65 4.34 4.3 4 6 C3.67 5.34 3.34 4.68 3 4 C0.98330173 2.86649466 0.98330173 2.86649466 -1 2 C-0.67 1.34 -0.34 0.68 0 0 Z " fill="#2154A6" transform="translate(96,300)"/>
<path d="M0 0 C1.32 0 2.64 0 4 0 C3.67 1.98 3.34 3.96 3 6 C2.01 6 1.02 6 0 6 C0 4.02 0 2.04 0 0 Z " fill="#2053A6" transform="translate(437,221)"/>
<path d="M0 0 C0.99 0.66 1.98 1.32 3 2 C3 2.99 3 3.98 3 5 C1.35 5.33 -0.3 5.66 -2 6 C-1.125 1.125 -1.125 1.125 0 0 Z " fill="#2253A6" transform="translate(233,200)"/>
<path d="M0 0 C0.66 0 1.32 0 2 0 C1.67 0.99 1.34 1.98 1 3 C0.34 3 -0.32 3 -1 3 C-0.67 2.01 -0.34 1.02 0 0 Z M-3 2 C-2.34 2.66 -1.68 3.32 -1 4 C-2.485 6.475 -2.485 6.475 -4 9 C-4.33 8.34 -4.66 7.68 -5 7 C-4.0625 4.375 -4.0625 4.375 -3 2 Z " fill="#2559AB" transform="translate(261,83)"/>
<path d="M0 0 C1.0326802 2.78823655 1.04509293 3.8677274 0.0625 6.75 C-0.288125 7.4925 -0.63875 8.235 -1 9 C-1.66666667 6.33333333 -2.33333333 3.66666667 -3 1 C-2.01 0.67 -1.02 0.34 0 0 Z " fill="#2154A7" transform="translate(225,355)"/>
<path d="M0 0 C3 2 3 2 3.75 4 C4 6 4 6 3 8 C2.34 8 1.68 8 1 8 C1.33 6.68 1.66 5.36 2 4 C1.01 4 0.02 4 -1 4 C-0.67 2.68 -0.34 1.36 0 0 Z " fill="#2053A5" transform="translate(508,295)"/>
<path d="M0 0 C0 0.99 0 1.98 0 3 C-2.64 3.66 -5.28 4.32 -8 5 C-5.72541886 1.64228499 -4.30291326 0 0 0 Z " fill="#1E51A3" transform="translate(393,266)"/>
<path d="M0 0 C1.65 0 3.3 0 5 0 C5.33 0.99 5.66 1.98 6 3 C4.02 3.33 2.04 3.66 0 4 C0 2.68 0 1.36 0 0 Z " fill="#2356A7" transform="translate(97,202)"/>
<path d="M0 0 C1.5 1.375 1.5 1.375 3 3 C3 3.66 3 4.32 3 5 C1.35 5.66 -0.3 6.32 -2 7 C-2.125 4.625 -2.125 4.625 -2 2 C-1.34 1.34 -0.68 0.68 0 0 Z " fill="#2154A6" transform="translate(340,158)"/>
<path d="M0 0 C1.32 0 2.64 0 4 0 C3.625 1.9375 3.625 1.9375 3 4 C2.01 4.495 2.01 4.495 1 5 C0.34 4.67 -0.32 4.34 -1 4 C-0.67 2.68 -0.34 1.36 0 0 Z " fill="#285BAC" transform="translate(68,0)"/>
<path d="M0 0 C0 0.99 0 1.98 0 3 C-0.66 3 -1.32 3 -2 3 C-2.33 3.99 -2.66 4.98 -3 6 C-3.99 6 -4.98 6 -6 6 C-4.95125002 3.37812506 -4.35068687 2.20628639 -1.875 0.75 C-1.25625 0.5025 -0.6375 0.255 0 0 Z " fill="#1F51A2" transform="translate(61,608)"/>
<path d="M0 0 C-3.3 1.32 -6.6 2.64 -10 4 C-10.66 3.34 -11.32 2.68 -12 2 C-10.75579353 1.4654744 -9.50429064 0.94791389 -8.25 0.4375 C-7.55390625 0.14746094 -6.8578125 -0.14257812 -6.140625 -0.44140625 C-4 -1 -4 -1 0 0 Z " fill="#C7DCEC" transform="translate(685,597)"/>
<path d="M0 0 C4 2 4 2 5.3125 3.9375 C6 6 6 6 5 9 C3.35 6.03 1.7 3.06 0 0 Z " fill="#D3E6F3" transform="translate(473,590)"/>
<path d="M0 0 C0.33 0.99 0.66 1.98 1 3 C-0.9375 6.1875 -0.9375 6.1875 -3 9 C-3.99 8.34 -4.98 7.68 -6 7 C-4.02 4.69 -2.04 2.38 0 0 Z " fill="#3D608F" transform="translate(585,519)"/>
<path d="M0 0 C0.99 0.33 1.98 0.66 3 1 C1.625 3.5 1.625 3.5 0 6 C-0.66 6 -1.32 6 -2 6 C-1.49396008 3.83125748 -1.00016187 2.00032373 0 0 Z " fill="#284F8A" transform="translate(588,515)"/>
<path d="M0 0 C1.65 0.99 3.3 1.98 5 3 C4.67 3.66 4.34 4.32 4 5 C1.5625 4.625 1.5625 4.625 -1 4 C-1.33 3.34 -1.66 2.68 -2 2 C-1.34 2 -0.68 2 0 2 C0 1.34 0 0.68 0 0 Z " fill="#305996" transform="translate(503,415)"/>
<path d="M0 0 C1.2065625 0.0309375 1.2065625 0.0309375 2.4375 0.0625 C2.7675 0.7225 3.0975 1.3825 3.4375 2.0625 C2.4475 3.3825 1.4575 4.7025 0.4375 6.0625 C0.4375 5.0725 0.4375 4.0825 0.4375 3.0625 C-0.8825 2.4025 -2.2025 1.7425 -3.5625 1.0625 C-2.5625 0.0625 -2.5625 0.0625 0 0 Z " fill="#275AAC" transform="translate(12.5625,408.9375)"/>
<path d="M0 0 C0.66 0 1.32 0 2 0 C2.33 0.99 2.66 1.98 3 3 C2.34 3 1.68 3 1 3 C0.67 3.66 0.34 4.32 0 5 C-0.99 5 -1.98 5 -3 5 C-1.125 1.125 -1.125 1.125 0 0 Z " fill="#1F52A5" transform="translate(407,329)"/>
<path d="M0 0 C0.66 0 1.32 0 2 0 C2 0.66 2 1.32 2 2 C2.66 2.33 3.32 2.66 4 3 C3.34 3 2.68 3 2 3 C2 3.66 2 4.32 2 5 C0.35 4.67 -1.3 4.34 -3 4 C-1.625 2 -1.625 2 0 0 Z " fill="#2557A8" transform="translate(265,210)"/>
<path d="M0 0 C0.99 0.33 1.98 0.66 3 1 C3 2.65 3 4.3 3 6 C2.34 6 1.68 6 1 6 C1 5.01 1 4.02 1 3 C0.01 3.33 -0.98 3.66 -2 4 C-2 3.01 -2 2.02 -2 1 C-1.34 0.67 -0.68 0.34 0 0 Z " fill="#2357A8" transform="translate(130,209)"/>
<path d="M0 0 C1.32 0 2.64 0 4 0 C4.33 0.99 4.66 1.98 5 3 C3.35 3.33 1.7 3.66 0 4 C0 2.68 0 1.36 0 0 Z " fill="#2156A6" transform="translate(157,0)"/>
</svg>
